{"accessors" : [{"bufferView" : 0, "byteOffset" : 0, "componentType" : 5123, "count" : 48, "type" : "SCALAR", "max" : [39], "min" : [0]}, {"bufferView" : 1, "byteOffset" : 0, "componentType" : 5126, "count" : 40, "type" : "VEC3", "max" : [25.55394744873047, 29.529979705810547, 16.747337341308594], "min" : [3.974349021911621, 4.239697456359863, 2.432149887084961], "name" : "POSITION"}, {"bufferView" : 1, "byteOffset" : 12, "componentType" : 5126, "count" : 40, "type" : "VEC3", "max" : [-0.4569309651851654, -0.09847942739725113, 0.8840388059616089], "min" : [-0.6056839227676392, -0.26173725724220276, 0.7514316439628601], "name" : "NORMAL"}, {"bufferView" : 1, "byteOffset" : 24, "componentType" : 5126, "count" : 40, "type" : "VEC2", "max" : [0.8593140244483948, 0.3472920060157776], "min" : [0.5816980004310608, 0.046434998512268066], "name" : "TEXCOORD_0"}, {"bufferView" : 0, "byteOffset" : 96, "componentType" : 5123, "count" : 48, "type" : "SCALAR", "max" : [39], "min" : [0]}, {"bufferView" : 2, "byteOffset" : 0, "componentType" : 5126, "count" : 40, "type" : "VEC3", "max" : [25.62533950805664, 29.55817985534668, 16.650272369384766], "min" : [4.045742034912109, 4.2678985595703125, 2.335085868835449], "name" : "POSITION"}, {"bufferView" : 2, "byteOffset" : 12, "componentType" : 5126, "count" : 40, "type" : "VEC3", "max" : [0.6056839227676392, 0.26173725724220276, -0.7514316439628601], "min" : [0.4569309651851654, 0.09847942739725113, -0.8840388059616089], "name" : "NORMAL"}, {"bufferView" : 2, "byteOffset" : 24, "componentType" : 5126, "count" : 40, "type" : "VEC2", "max" : [0.483379989862442, 0.5715500116348267], "min" : [0.04289200156927109, 0.1479009985923767], "name" : "TEXCOORD_0"}, {"bufferView" : 0, "byteOffset" : 192, "componentType" : 5123, "count" : 468, "type" : "SCALAR", "max" : [384], "min" : [0]}, {"bufferView" : 3, "byteOffset" : 0, "componentType" : 5126, "count" : 385, "type" : "VEC3", "max" : [27.202640533447266, 31.502307891845703, 18.116771697998047], "min" : [0, 0, 0], "name" : "POSITION"}, {"bufferView" : 3, "byteOffset" : 12, "componentType" : 5126, "count" : 385, "type" : "VEC3", "max" : [0.6273949146270752, 0.7519345879554749, 0.8840388059616089], "min" : [-0.7871427536010742, -0.7519345879554749, -0.8851157426834106], "name" : "NORMAL"}, {"bufferView" : 3, "byteOffset" : 24, "componentType" : 5126, "count" : 385, "type" : "VEC2", "max" : [0.9761390089988708, 0.9751430153846741], "min" : [0.024598000571131706, 0.02716900035738945], "name" : "TEXCOORD_0"}], "asset" : {"generator" : "Aspose.3D 23.2", "version" : "2.0"}, "buffers" : [{"uri" : "data:application/octet-stream;base64,", "byteLength" : 19192}], "bufferViews" : [{"buffer" : 0, "byteOffset" : 0, "byteLength" : 1128, "target" : 34963}, {"buffer" : 0, "byteOffset" : 1132, "byteLength" : 1536, "byteStride" : 32, "target" : 34962}, {"buffer" : 0, "byteOffset" : 2672, "byteLength" : 1536, "byteStride" : 32, "target" : 34962}, {"buffer" : 0, "byteOffset" : 4212, "byteLength" : 14976, "byteStride" : 32, "target" : 34962}], "images" : [{"uri" : "data:image/png;base64,"}, {"uri" : "data:image/png;base64,"}], "materials" : [{"pbrMetallicRoughness" : {"baseColorFactor" : [1, 1, 1, 1], "baseColorTexture" : {"index" : 0, "texCoord" : 0}, "metallicFactor" : 0, "roughnessFactor" : 0}, "emissiveFactor" : [0, 0, 0], "alphaMode" : "OPAQUE", "doubleSided" : true}, {"pbrMetallicRoughness" : {"baseColorFactor" : [1, 1, 1, 1], "baseColorTexture" : {"index" : 1, "texCoord" : 0}, "metallicFactor" : 0, "roughnessFactor" : 0.07}, "emissiveFactor" : [0, 0, 0], "alphaMode" : "OPAQUE", "doubleSided" : true}, {"pbrMetallicRoughness" : {"baseColorFactor" : [1, 1, 1, 1], "baseColorTexture" : {"index" : 1, "texCoord" : 0}, "metallicFactor" : 0, "roughnessFactor" : 0.16000000000000003}, "emissiveFactor" : [0, 0, 0], "alphaMode" : "OPAQUE", "doubleSided" : true}], "meshes" : [{"primitives" : [{"attributes" : {"POSITION" : 1, "NORMAL" : 2, "TEXCOORD_0" : 3}, "indices" : 0, "material" : 0, "mode" : 4}]}, {"primitives" : [{"attributes" : {"POSITION" : 5, "NORMAL" : 6, "TEXCOORD_0" : 7}, "indices" : 4, "material" : 1, "mode" : 4}]}, {"primitives" : [{"attributes" : {"POSITION" : 9, "NORMAL" : 10, "TEXCOORD_0" : 11}, "indices" : 8, "material" : 2, "mode" : 4}]}], "nodes" : [{"mesh" : 0, "name" : "Object_3"}, {"mesh" : 1, "name" : "Object_4"}, {"mesh" : 2, "name" : "Object_5"}, {"children" : [0, 1, 2], "name" : "Object_2"}, {"children" : [3], "matrix" : [1, 0, 0, 0, 0, 1, 0, 0, 0, 0, 1, 0, -12.943251609802246, -16.326318740844727, 9.466170310974121, 1], "name" : "photo.obj.cleaner.gles"}, {"children" : [4], "matrix" : [1, 0, 0, 0, 0, 3.422854177870249E-08, -0.9999999403953552, 0, 0, 0.9999999403953552, 3.422854177870249E-08, 0, 0, 0, 0, 1], "name" : "Sketchfab_model"}], "samplers" : [{"magFilter" : 9729, "minFilter" : 9729, "wrapS" : 33071, "wrapT" : 33071}, {"magFilter" : 9729, "minFilter" : 9987, "wrapS" : 10497, "wrapT" : 10497}], "scene" : 0, "scenes" : [{"nodes" : [5]}], "textures" : [{"sampler" : 0, "source" : 0, "name" : ""}, {"sampler" : 1, "source" : 1, "name" : ""}]}